<svg height="463pt" viewBox="-39 0 463 463.85624" width="463pt" xmlns="http://www.w3.org/2000/svg"><path d="m248.429688 338.71875v-14.6875c-12.707032 4.96875-34.152344 11.832031-56 11.832031-21.847657 0-43.296876-6.855469-56-11.832031v14.679688c9.496093 4.113281 32.957031 13.144531 56 13.144531 23.117187 0 46.527343-9.023438 56-13.136719zm0 0"/><path d="m255.066406 227.296875c6.074219-10.695313 9.363282-22.800781 9.363282-35.441406v-56h-144v56c0 12.632812 3.285156 24.738281 9.359374 35.433593 1.511719-7.304687 4.269532-14.304687 8.464844-20.601562 6.183594-9.289062 16.542969-14.832031 27.703125-14.832031 8.886719 0 17.238281 3.464843 23.527344 9.753906l2.945313 2.933594 2.933593-2.933594c6.289063-6.289063 14.640625-9.753906 23.527344-9.753906 11.160156 0 21.511719 5.542969 27.699219 14.832031 4.199218 6.304688 6.957031 13.304688 8.476562 20.609375zm-102.636718-59.441406c-4.417969 0-8-3.582031-8-8 0-4.414063 3.582031-8 8-8 4.414062 0 8 3.585937 8 8 0 4.425781-3.585938 8-8 8zm80 0c-4.417969 0-8-3.582031-8-8 0-4.414063 3.582031-8 8-8 4.414062 0 8 3.585937 8 8 0 4.425781-3.585938 8-8 8zm0 0"/><path d="m80.429688 103.855469h224.007812v16h-224.007812zm0 0"/><path d="m320.429688 327.855469h23.085937c-10.101563-9.871094-23.878906-16-39.085937-16h-6.53125c3.3125 9.296875 12.113281 16 22.53125 16zm0 0"/><path d="m224.402344 87.855469c-.140625-31.304688-11.476563-60.792969-31.972656-84.101563-20.496094 23.308594-31.832032 52.796875-31.976563 84.101563zm-23.972656-40v16h-16v-16zm0 0"/><path d="m240.429688 239.167969c0-8.421875-2.472657-16.582031-7.152344-23.609375-3.210938-4.824219-8.585938-7.703125-14.386719-7.703125-4.613281 0-8.949219 1.800781-12.214844 5.066406l-10.351562 10.359375 2.761719 4.144531c9.335937 14.007813 23.269531 24.644531 39.238281 29.972657l4.632812 1.539062c-1.671875-6.449219-2.527343-13.113281-2.527343-19.769531zm0 0"/><path d="m165.957031 207.855469c-5.800781 0-11.167969 2.871093-14.386719 7.703125-4.671874 7.019531-7.140624 15.1875-7.140624 23.609375 0 6.65625-.859376 13.320312-2.53125 19.769531l4.632812-1.539062c15.96875-5.328126 29.90625-15.964844 39.242188-29.972657l2.757812-4.144531-10.351562-10.359375c-3.261719-3.265625-7.597657-5.066406-12.222657-5.066406zm0 0"/><path d="m128.019531 294.511719c6.886719-4.589844 11.855469-11.28125 14.417969-18.894531l-29.800781 9.933593 9.167969-18.351562c2.582031-5.167969 4.34375-10.710938 5.414062-16.390625-14.664062-16.207032-22.789062-36.929688-22.789062-58.953125v-56h-9.027344c-1.863282 6.90625-5.917969 11.3125-9.101563 14.761719-3.664062 3.96875-5.871093 6.359374-5.871093 11.886718s2.207031 7.921875 5.871093 11.886719c4.28125 4.632813 10.128907 10.96875 10.128907 22.753906 0 11.785157-5.847657 18.128907-10.128907 22.75-3.664062 3.96875-5.871093 6.363281-5.871093 11.898438 0 5.535156 2.207031 7.933593 5.871093 11.910156 4.28125 4.625 10.128907 10.960937 10.128907 22.753906 0 11.808594-5.847657 18.144531-10.121094 22.773438-2.234375 2.417969-3.832032 4.3125-4.816406 6.625h44.511718zm0 0"/><path d="m41.339844 327.855469h23.089844c10.414062 0 19.214843-6.710938 22.527343-16h-6.527343c-15.210938 0-28.984376 6.128906-39.089844 16zm0 0"/><path d="m288.019531 87.855469c-3.558593-42.839844-35.304687-77.792969-76.640625-86.101563 18.640625 24.742188 28.898438 54.597656 29.015625 86.101563zm-39.589843-40h16v16h-16zm0 0"/><path d="m174.164062 261.359375c11.929688 3.039063 24.640626 3.089844 36.566407.039063-6.78125-4.605469-12.957031-10.085938-18.308594-16.316407-5.328125 6.214844-11.488281 11.6875-18.257813 16.277344zm0 0"/><path d="m173.46875 1.761719c-41.335938 8.308593-73.082031 43.253906-76.640625 86.101562h47.625c.128906-31.511719 10.375-61.367187 29.015625-86.101562zm-37.039062 62.09375h-16v-16h16zm0 0"/><path d="m192.429688 319.855469c22.140624 0 44.589843-8.296875 54.765624-12.605469-11.582031-8.035156-19.289062-20.203125-21.800781-33.808594-10.421875 4.207032-21.644531 6.414063-32.972656 6.414063-11.3125 0-22.53125-2.277344-32.960937-6.488281-2.488282 13.632812-10.207032 25.832031-21.808594 33.875 10.214844 4.316406 32.710937 12.613281 54.777344 12.613281zm0 0"/><path d="m256.835938 294.511719 2.015624 1.34375h44.511719c-.984375-2.3125-2.582031-4.207031-4.816406-6.625-4.269531-4.628907-10.117187-10.964844-10.117187-22.773438 0-11.800781 5.847656-18.136719 10.125-22.761719 3.664062-3.96875 5.875-6.367187 5.875-11.902343 0-5.527344-2.210938-7.921875-5.875-11.890625-4.277344-4.628906-10.125-10.964844-10.125-22.757813s5.847656-18.128906 10.125-22.753906c3.664062-3.957031 5.875-6.351563 5.875-11.886719s-2.210938-7.917968-5.875-11.886718c-3.183594-3.449219-7.238282-7.855469-9.101563-14.761719h-9.023437v56c0 22.023437-8.121094 42.746093-22.800782 58.945312 1.078125 5.679688 2.839844 11.230469 5.414063 16.398438l9.167969 18.351562-29.796876-9.933593c2.566407 7.613281 7.535157 14.304687 14.421876 18.894531zm0 0"/><path d="m288.429688 444.664062v19.191407h48v-19.191407c-5.769532 1.785157-13.53125 3.191407-24 3.191407-10.472657 0-18.234376-1.40625-24-3.191407zm0 0"/><path d="m248.835938 355.871094c-12.648438 4.984375-34.320313 11.992187-56.40625 11.992187-11.929688 0-23.730469-2.0625-34.082032-4.726562 33.054688 31.183593 71.855469 56.007812 114.082032 72.925781v-60.191406c-11.867188-.015625-21.671876-8.679688-23.59375-20zm0 0"/><path d="m112.429688 379.609375v84.246094h113.09375c-42.527344-20.71875-81.039063-49.34375-113.09375-84.246094zm0 0"/><path d="m288.429688 412.664062v14.855469c3.46875 1.738281 10.8125 4.34375 24 4.34375 13.183593 0 20.527343-2.605469 24-4.34375v-14.855469c-5.769532 1.785157-13.53125 3.191407-24 3.191407-10.472657 0-18.234376-1.40625-24-3.191407zm0 0"/><path d="m381.460938.816406-6.816407 17.039063c-4.984375 12.472656-13.296875 23.3125-24.039062 31.367187-12.578125 9.441406-28.167969 14.632813-43.90625 14.632813h-6.992188c2.296875 7.6875 3.722657 15.730469 4.3125 24h.410157c8.757812 0 15.886718 7.089843 15.984374 15.824219 18.796876-.894532 36.308594-9.480469 48.429688-24.015626 10.054688-12.0625 15.585938-27.351562 15.585938-43.046874v-35.21875c.007812-1.4843755-2.417969-1.949219-2.96875-.582032zm0 0"/><path d="m320.429688 343.855469c-19.3125 0-35.472657-13.765625-39.195313-32h-16.804687v40c0 4.417969 3.582031 8 8 8h87.429687c-.816406-5.65625-2.511719-11.015625-4.886719-16zm0 0"/><path d="m288.429688 395.519531c3.46875 1.738281 10.8125 4.34375 24 4.34375 13.183593 0 20.527343-2.605469 24-4.34375v-19.65625h-48zm0 0"/><path d="m126.492188 371.207031c38.542968 41.191407 86.488281 73.167969 139.457031 92.648438h6.480469v-10.582031c-52.160157-19.863282-99.539063-51.289063-138.195313-91.519532-1.726563 3.78125-4.40625 7.03125-7.742187 9.453125zm0 0"/><path d="m48.429688 412.664062v14.855469c3.46875 1.738281 10.8125 4.34375 24 4.34375 13.183593 0 20.527343-2.605469 24-4.34375v-14.855469c-5.769532 1.785157-13.53125 3.191407-24 3.191407-10.472657 0-18.234376-1.40625-24-3.191407zm0 0"/><path d="m48.429688 395.519531c3.46875 1.738281 10.8125 4.34375 24 4.34375 13.183593 0 20.527343-2.605469 24-4.34375v-19.65625h-48zm0 0"/><path d="m120.429688 351.855469v-40h-16.808594c-3.722656 18.234375-19.871094 32-39.191406 32h-34.539063c-2.375 4.984375-4.078125 10.34375-4.886719 16h87.425782c4.414062 0 8-3.582031 8-8zm0 0"/><path d="m80.429688 87.855469h.40625c.59375-8.269531 2.015624-16.3125 4.3125-24h-6.992188c-15.734375 0-31.328125-5.191407-43.902344-14.632813-10.746094-8.054687-19.058594-18.894531-24.042968-31.367187l-6.816407-17.03125c-.542969-1.382813-2.964843-.9101565-2.964843.574219v35.21875c0 15.695312 5.527343 30.984374 15.582031 43.054687 12.121093 14.535156 29.632812 23.113281 48.433593 24.007813.09375-8.734376 7.222657-15.824219 15.984376-15.824219zm0 0"/><path d="m48.429688 444.664062v19.191407h48v-19.191407c-5.769532 1.785157-13.53125 3.191407-24 3.191407-10.472657 0-18.234376-1.40625-24-3.191407zm0 0"/></svg>